<?xml version="1.0" standalone="no"?>
<!DOCTYPE svg PUBLIC "-//W3C//DTD SVG 20010904//EN"
 "http://www.w3.org/TR/2001/REC-SVG-20010904/DTD/svg10.dtd">
<svg version="1.0" xmlns="http://www.w3.org/2000/svg"
 width="256.000000pt" height="256.000000pt" viewBox="0 0 256.000000 256.000000"
 preserveAspectRatio="xMidYMid meet">
<metadata>
Created by potrace 1.14, written by Peter Selinger 2001-2017
</metadata>
<g transform="translate(0.000000,256.000000) scale(0.100000,-0.100000)"
fill="#000000" stroke="none">
<path d="M0 1280 c0 -1273 0 -1280 20 -1280 13 0 20 7 20 20 0 13 7 20 20 20
13 0 20 7 20 20 0 13 7 20 20 20 13 0 20 7 20 20 0 13 7 20 20 20 13 0 20 7
20 20 0 20 7 20 1120 20 l1120 0 0 1120 c0 1113 0 1120 20 1120 13 0 20 7 20
20 0 13 7 20 20 20 13 0 20 7 20 20 0 13 7 20 20 20 13 0 20 7 20 20 0 13 7
20 20 20 13 0 20 7 20 20 0 20 -7 20 -1280 20 l-1280 0 0 -1280z m1440 940 c0
-13 -7 -20 -20 -20 -19 0 -20 -7 -20 -120 l0 -120 -180 0 -180 0 0 -540 0
-540 -140 0 c-133 0 -140 -1 -140 -20 0 -13 -7 -20 -20 -20 -20 0 -20 7 -20
540 0 533 0 540 20 540 13 0 20 7 20 20 0 19 -7 20 -180 20 -173 0 -180 -1
-180 -20 0 -13 -7 -20 -20 -20 -19 0 -20 7 -20 160 l0 160 540 0 c533 0 540 0
540 -20z m720 -520 c0 -13 -7 -20 -20 -20 -19 0 -20 -7 -20 -120 l0 -120 -240
0 -240 0 0 -160 c0 -153 1 -160 20 -160 13 0 20 7 20 20 0 19 7 20 220 20 213
0 220 -1 220 -20 0 -13 -7 -20 -20 -20 -19 0 -20 -7 -20 -120 l0 -120 -220 0
-220 0 0 -260 0 -260 -140 0 c-133 0 -140 -1 -140 -20 0 -13 -7 -20 -20 -20
-20 0 -20 7 -20 700 l0 700 420 0 c413 0 420 0 420 -20z"/>
</g>
</svg>
